<svg xmlns="http://www.w3.org/2000/svg" version="1.1" xmlns:xlink="http://www.w3.org/1999/xlink" viewBox="0 0 700 700" style="overflow: hidden; display: block;" width="700" height="700"><defs></defs><g id="two-0" transform="matrix(1 0 0 1 0 0)" opacity="1"><path transform="matrix(1 0 0 1 350 350)" id="two-4" d="M 160.860348 47.232859 C 147.012932 97.080563 286.649437 122.811158 261.082761 167.787702 C 238.955342 206.713952 170.167431 158.733382 127.057762 146.632474 C 101.6235 139.493063 76.413933 103.831511 53.03983 116.141027 C 22.690635 132.123838 64.474085 209.018919 31.312861 217.785738 C 5.444773 224.624474 3.722017 161.999702 -22.606407 157.231008 C -46.385995 152.923968 -66.224529 203.02296 -87.394914 191.368166 C -111.435838 178.133072 -71.054371 123.540323 -93.988497 108.468507 C -140.411307 77.960433 -210.160049 197.77396 -253.314732 162.795492 C -276.984335 143.610403 -229.886525 98.977533 -242.254038 71.132203 C -258.774478 33.936601 -349.300202 40.209619 -343.00542 0 C -334.137239 -56.647901 -206.579055 -2.782161 -177.230527 -52.039578 C -165.067184 -72.454056 -186.114677 -99.464805 -190.967536 -122.727384 C -200.047024 -166.250654 -252.920344 -224.029193 -220.288211 -254.226147 C -189.613787 -282.611487 -137.693849 -200.945943 -99.182623 -217.179649 C -63.923432 -232.04252 -84.189231 -323.234874 -46.043102 -320.236808 C 21.229787 -314.949548 -46.528531 -145.398386 18.127668 -126.080707 C 43.109682 -118.616697 56.378429 -186.21396 80.011947 -175.201727 C 104.03709 -164.007012 67.58962 -116.999957 82.24322 -94.913736 C 89.923504 -83.337846 107.533025 -82.304014 120.560361 -77.479441 C 143.788189 -68.877194 169.744797 -66.000552 192.647345 -56.566365 C 228.705671 -41.712953 299.595579 -38.86702 296.404741 -0.000001 C 292.529073 47.208796 173.538707 1.593507 160.860348 47.232859 Z " fill="hsl(180, 69%, 30%)" stroke="undefined" stroke-width="1" stroke-opacity="1" fill-opacity="1" visibility="visible" stroke-linecap="butt" stroke-linejoin="miter" stroke-miterlimit="4"></path></g></svg>