<svg xmlns="http://www.w3.org/2000/svg" version="1.1" xmlns:xlink="http://www.w3.org/1999/xlink" xmlns:svgjs="http://svgjs.dev/svgjs" viewBox="0 0 800 800"><defs><linearGradient x1="50%" y1="0%" x2="50%" y2="100%" id="ccchaos-grad"><stop stop-color="hsl(206, 75%, 49%)" stop-opacity="1" offset="0%"></stop><stop stop-color="hsl(331, 90%, 56%)" stop-opacity="1" offset="100%"></stop></linearGradient></defs><g stroke-width="2" stroke="url(#ccchaos-grad)" fill="none" stroke-linecap="round"><path d="M402.59 102.69C412.52 104.75 422.67 107.68 433.02 111.34 443.39 115.19 453.97 119.54 464.74 124.25 475.54 128.82 486.52 133.56 497.61 138.37 508.69 142.78 519.82 147.17 530.89 151.48 541.82 155.3 552.55 159.06 562.92 162.75 572.92 166 582.32 169.28 590.94 172.63 598.89 175.67 605.81 178.9 611.51 182.37 618.1 187.56 623.36 199.88 622.49 207.21 621.36 212.37 619.72 218.04 617.94 224.19 616.96 230.5 616.61 237.3 617.29 244.53 619.77 251.91 623.84 259.7 629.66 267.84 637.53 276.11 647 284.68 657.76 293.5 669.59 302.41 681.67 311.52 693.3 320.78 704.05 330.08 712.95 339.5 719.29 348.99 723.03 358.49 723.44 368.03 720.38 377.57 714.6 387.11 706.15 396.42 695.78 405.48 684.59 414.54 673.03 423.37 661.89 431.97 652.08 440.61 643.8 449.05 637.39 457.33 633.33 465.69 631.23 473.95 630.86 482.14 632.4 490.51 634.93 498.9 637.96 507.34 641.62 516.06 644.84 524.93 647.2 533.98 648.98 543.38 649.29 553.02 647.99 562.92 645.51 573.15 641.31 583.62 635.51 594.26 628.57 605.11 620.29 616.01 610.91 626.81 600.78 637.54 589.93 647.92 578.6 657.76 566.96 667.1 555.13 675.58 543.29 682.98 531.44 689.46 519.73 694.57 508.24 698.17 496.88 700.61 485.76 701.44 474.92 700.64 464.22 698.82 453.75 695.59 443.51 691.09 433.36 686.14 423.38 680.43 413.58 674.25 403.81 668.48 394.16 662.87 384.65 657.7 375.14 653.77 365.97 650.8 357.14 648.87 348.3 648.42 339.8 648.94 331.65 650.29 323.49 652.79 315.68 655.72 308.24 658.83 300.78 662.43 293.66 665.71 286.88 668.43 280.04 670.94 273.49 672.49 267.21 672.94 260.78 672.72 254.54 671.21 248.45 668.42 242.08 664.79 235.78 659.91 229.5 653.87 222.84 647.1 216.13 639.34 209.36 630.75 202.2 621.65 194.99 611.94 187.75 601.76 180.25 591.33 172.84 580.62 165.62 569.74 158.38 558.81 151.51 547.82 145.14 536.87 139.06 525.97 133.65 515.15 129.05 504.44 124.92 493.83 121.67 483.33 119.34 472.97 117.47 462.69 116.43 452.52 116.18 442.47 116.13 432.46 116.65 422.55 117.62 412.73 118.4 402.94 119.38 393.21 120.46 383.58 121.04 373.95 121.59 364.63 122.1 355.63 122.1 346.63 122.18 337.95 122.4 329.6 122.39 321.25 122.76 313.25 123.62 305.6 124.61 297.96 126.31 290.67 128.77 283.76 131.65 276.83 135.39 270.25 139.98 264.03 145.06 257.75 150.94 251.78 157.52 246.12 164.45 240.32 171.93 234.76 179.85 229.41 187.88 223.82 196.17 218.37 204.63 213 212.96 207.32 221.34 201.65 229.73 195.98 237.84 189.93 245.92 183.83 253.96 177.7 261.7 171.2 269.43 164.69 277.2 158.22 284.69 151.51 292.29 144.93 300.01 138.6 307.55 132.24 315.29 126.29 323.26 120.87 331.12 115.69 339.27 111.23 347.74 107.6 356.14 104.46 364.9 102.29 374.03 101.15 383.13 100.61 392.65 101.12 402.58 102.69" stroke-dasharray="10 3" transform="rotate(0, 400, 400)" opacity="0.05"></path><path d="M409.37 113.36C419.08 115.4 428.96 118.26 438.99 121.83 449.04 125.59 459.25 129.85 469.58 134.48 479.9 138.99 490.32 143.69 500.74 148.49 511.1 152.94 521.39 157.38 531.5 161.77 541.41 165.7 550.98 169.57 560.07 173.38 568.75 176.76 576.75 180.15 583.89 183.57 593.16 188.31 605.1 198.42 607.6 204.09 608.25 210.08 605.8 224.24 604.28 232.49 604.25 238.25 604.99 244.47 606.82 251.11 610.36 257.87 615.38 265.03 621.97 272.54 630.32 280.15 640 288.09 650.67 296.29 662.12 304.57 673.61 313.08 684.49 321.77 694.43 330.5 702.55 339.38 708.25 348.37 711.56 357.38 711.79 366.47 708.84 375.61 703.41 384.76 695.52 393.74 685.8 402.54 675.26 411.35 664.25 419.99 653.47 428.48 643.78 437.01 635.36 445.41 628.52 453.72 623.77 462.11 620.79 470.47 619.45 478.82 619.94 487.32 621.5 495.9 623.72 504.56 626.75 513.46 629.63 522.52 631.96 531.76 634.01 541.28 634.92 551.01 634.51 560.93 633.17 571.1 630.31 581.42 625.98 591.82 620.62 602.32 613.93 612.76 606.1 623 597.5 633.07 588.04 642.71 577.96 651.73 567.46 660.21 556.6 667.8 545.55 674.31 534.39 679.94 523.21 684.26 512.13 687.14 501.08 688.99 490.21 689.36 479.54 688.25 468.96 686.25 458.59 682.99 448.46 678.6 438.39 673.86 428.52 668.45 418.86 662.62 409.23 657.2 399.77 651.92 390.49 647.03 381.21 643.27 372.31 640.36 363.79 638.38 355.25 637.75 347.06 637.99 339.24 638.99 331.39 641.08 323.88 643.59 316.72 646.31 309.49 649.54 302.58 652.55 295.97 655.11 289.24 657.57 282.76 659.23 276.49 659.94 270.02 660.11 263.68 659.15 257.44 657.03 250.91 654.18 244.4 650.16 237.87 645.06 230.99 639.26 224.06 632.5 217.07 624.9 209.75 616.79 202.41 608.01 195.09 598.71 187.59 589.11 180.23 579.16 173.12 568.96 166.07 558.64 159.44 548.2 153.35 537.72 147.58 527.24 142.52 516.78 138.26 506.39 134.49 496.05 131.58 485.8 129.55 475.67 127.97 465.6 127.18 455.63 127.13 445.8 127.26 436 127.91 426.31 128.97 416.74 129.84 407.18 130.88 397.73 132 388.41 132.61 379.08 133.18 370.08 133.68 361.42 133.67 352.75 133.7 344.42 133.85 336.43 133.74 328.43 133.96 320.76 134.62 313.45 135.37 306.12 136.77 299.13 138.88 292.48 141.37 285.8 144.69 279.43 148.82 273.38 153.43 267.24 158.83 261.37 164.96 255.75 171.46 249.98 178.57 244.39 186.16 238.97 193.92 233.31 202.02 227.74 210.34 222.24 218.63 216.42 227.02 210.61 235.46 204.78 243.71 198.61 251.96 192.4 260.18 186.18 268.15 179.64 276.11 173.12 284.08 166.67 291.8 160.03 299.58 153.57 307.45 147.38 315.13 141.21 322.97 135.47 330.98 130.26 338.88 125.33 347.01 121.09 355.42 117.67 363.75 114.73 372.4 112.72 381.38 111.7 390.33 111.25 399.66 111.8 409.36 113.36" stroke-dasharray="2 11" transform="rotate(4.04, 400, 400)" opacity="0.09"></path><path d="M415.23 124.04C424.68 126.03 434.24 128.83 443.88 132.31 453.53 135.97 463.26 140.13 473.02 144.66 482.76 149.11 492.48 153.76 502.1 158.53 511.63 162.99 520.97 167.47 530.01 171.91 538.83 175.94 547.2 179.92 554.99 183.85 562.39 187.36 569.05 190.86 574.85 194.39 582.25 199.23 591.17 209.32 592.76 214.82 593.12 220.51 591.74 233.73 591.48 241.36 592.45 246.65 594.26 252.36 597.16 258.47 601.65 264.67 607.49 271.26 614.68 278.19 623.37 285.21 633.11 292.55 643.57 300.18 654.58 307.86 665.43 315.8 675.55 323.95 684.7 332.13 692.07 340.5 697.17 349.02 700.07 357.55 700.14 366.22 697.3 374.99 692.22 383.76 684.85 392.43 675.77 400.99 665.86 409.55 655.42 418.03 645.06 426.4 635.55 434.82 627.06 443.19 619.91 451.5 614.58 459.91 610.83 468.33 608.59 476.78 608.08 485.38 608.67 494.07 610.02 502.86 612.31 511.86 614.68 521 616.78 530.31 618.86 539.83 620.09 549.51 620.29 559.31 619.81 569.29 618.04 579.33 614.96 589.35 611 599.39 605.78 609.27 599.43 618.86 592.34 628.21 584.33 637.06 575.58 645.23 566.36 652.85 556.64 659.57 546.59 665.21 536.33 670.03 525.91 673.62 515.47 675.86 504.98 677.17 494.55 677.14 484.26 675.77 474 673.64 463.9 670.38 453.99 666.13 444.14 661.61 434.47 656.49 425 651.02 415.57 645.94 406.31 640.98 397.26 636.35 388.21 632.77 379.54 629.93 371.26 627.9 362.95 627.11 355 627.1 347.4 627.78 339.76 629.48 332.44 631.58 325.43 633.91 318.33 636.77 311.51 639.48 304.93 641.85 298.22 644.21 291.69 645.9 285.32 646.79 278.73 647.27 272.23 646.74 265.78 645.19 259.04 643.02 252.3 639.78 245.53 635.52 238.45 630.65 231.32 624.83 224.16 618.19 216.73 611.05 209.33 603.22 202 594.83 194.57 586.11 187.34 576.98 180.41 567.53 173.61 557.93 167.28 548.13 161.52 538.22 156.13 528.26 151.44 518.27 147.56 508.3 144.16 498.34 141.59 488.44 139.87 478.63 138.56 468.85 138.01 459.16 138.15 449.6 138.44 440.06 139.21 430.63 140.36 421.34 141.3 412.05 142.39 402.89 143.54 393.86 144.18 384.83 144.76 376.14 145.26 367.79 145.25 359.43 145.26 351.4 145.35 343.72 145.16 336.01 145.26 328.63 145.74 321.59 146.27 314.51 147.39 307.74 149.17 301.29 151.28 294.78 154.17 288.56 157.83 282.61 161.96 276.55 166.86 270.71 172.48 265.09 178.51 259.3 185.16 253.66 192.34 248.14 199.75 242.38 207.55 236.69 215.64 231.04 223.77 225.1 232.08 219.15 240.48 213.2 248.77 206.93 257.09 200.65 265.42 194.37 273.56 187.83 281.7 181.33 289.83 174.95 297.76 168.42 305.72 162.11 313.74 156.09 321.59 150.13 329.54 144.62 337.63 139.65 345.6 134.96 353.76 130.96 362.13 127.76 370.44 125.01 379 123.16 387.84 122.26 396.66 121.89 405.78 122.48 415.22 124.03" stroke-dasharray="10 9" transform="rotate(8.08, 400, 400)" opacity="0.13"></path><path d="M419.61 134.71C428.75 136.67 437.92 139.39 447.11 142.76 456.28 146.33 465.45 150.38 474.55 154.8 483.62 159.16 492.56 163.75 501.3 168.47 509.93 172.93 518.27 177.42 526.22 181.91 533.93 186.02 541.13 190.1 547.71 194.13 556.66 199.58 569.9 210.02 573.98 215.2 576.66 220.2 578.26 231.1 578.05 237.2 578.52 243.6 583 258.26 588.29 266.56 593.6 272.27 600.09 278.34 607.74 284.76 616.61 291.24 626.29 298.04 636.46 305.14 646.94 312.28 657.12 319.69 666.48 327.33 674.85 335 681.51 342.89 686.04 350.97 688.56 359.05 688.49 367.31 685.77 375.72 681.01 384.14 674.15 392.51 665.69 400.83 656.41 409.17 646.55 417.46 636.63 425.72 627.37 434.02 618.9 442.32 611.54 450.62 605.74 459 601.33 467.43 598.27 475.92 596.83 484.53 596.48 493.25 596.94 502.08 598.41 511.06 600.14 520.18 601.82 529.42 603.71 538.82 605.02 548.32 605.55 557.89 605.66 567.54 604.71 577.18 602.63 586.72 599.85 596.19 595.92 605.43 590.92 614.31 585.25 622.88 578.64 630.91 571.24 638.23 563.35 644.99 554.87 650.86 545.94 655.69 536.74 659.75 527.26 662.66 517.63 664.32 507.89 665.17 498.1 664.79 488.36 663.21 478.59 660.99 468.92 657.77 459.38 653.68 449.86 649.38 440.49 644.57 431.3 639.43 422.13 634.69 413.12 630.04 404.3 625.68 395.47 622.26 387.02 619.49 378.93 617.44 370.82 616.51 363.04 616.28 355.58 616.66 348.07 617.98 340.84 619.7 333.89 621.64 326.84 624.13 320.01 626.53 313.38 628.67 306.59 630.88 299.95 632.54 293.41 633.53 286.66 634.21 279.96 634.04 273.28 632.95 266.34 631.36 259.39 628.8 252.4 625.3 245.16 621.26 237.89 616.33 230.62 610.6 223.17 604.4 215.78 597.5 208.53 590.02 201.25 582.2 194.23 573.92 187.56 565.29 181.08 556.45 175.1 547.37 169.72 538.12 164.73 528.78 160.45 519.35 156.96 509.88 153.94 500.4 151.72 490.93 150.31 481.52 149.27 472.11 148.94 462.78 149.26 453.55 149.69 444.33 150.56 435.21 151.78 426.22 152.78 417.24 153.9 408.37 155.07 399.65 155.75 390.92 156.34 382.52 156.85 374.46 156.85 366.38 156.85 358.63 156.91 351.2 156.66 343.75 156.66 336.61 156.98 329.77 157.32 322.89 158.19 316.3 159.65 309.99 161.4 303.6 163.87 297.46 167.07 291.56 170.7 285.53 175.08 279.7 180.18 274.03 185.68 268.19 191.82 262.47 198.51 256.84 205.49 250.98 212.9 245.17 220.65 239.39 228.52 233.33 236.61 227.28 244.86 221.22 253.08 214.9 261.38 208.57 269.71 202.28 277.92 195.77 286.15 189.35 294.38 183.06 302.46 176.69 310.56 170.55 318.69 164.74 326.68 159.01 334.74 153.74 342.89 149.02 350.93 144.59 359.12 140.84 367.45 137.85 375.73 135.31 384.21 133.61 392.89 132.83 401.55 132.54 410.45 133.17 419.59 134.71" stroke-dasharray="2 4" transform="rotate(12.12, 400, 400)" opacity="0.16"></path><path d="M422.05 145.38C430.85 147.3 439.59 149.94 448.25 153.2 456.91 156.66 465.45 160.59 473.85 164.89 482.19 169.16 490.31 173.66 498.16 178.32 505.88 182.75 513.23 187.25 520.13 191.76 526.81 195.93 532.93 200.09 538.43 204.21 545.86 209.84 556.53 220.62 559.75 225.91 561.98 230.97 563.99 241.74 564.63 247.64 566.27 253.73 573.56 267.5 580.16 275.24 586.15 280.53 593.15 286.18 601.08 292.15 610.01 298.15 619.51 304.47 629.28 311.1 639.19 317.74 648.67 324.67 657.27 331.86 664.88 339.06 670.87 346.5 674.86 354.17 677.03 361.83 676.84 369.71 674.23 377.78 669.8 385.86 663.43 393.95 655.56 402.03 646.9 410.12 637.62 418.23 628.17 426.35 619.22 434.51 610.85 442.7 603.37 450.93 597.22 459.23 592.26 467.61 588.5 476.06 586.21 484.61 584.95 493.27 584.53 502.02 585.15 510.89 586.15 519.86 587.28 528.91 588.79 538.07 589.96 547.27 590.58 556.46 591.01 565.68 590.6 574.82 589.26 583.78 587.41 592.61 584.55 601.14 580.71 609.25 576.3 617.03 570.98 624.22 564.87 630.7 558.29 636.63 551.05 641.68 543.29 645.75 535.23 649.12 526.8 651.4 518.1 652.56 509.25 652.99 500.26 652.33 491.19 650.59 482.08 648.33 472.97 645.18 463.91 641.25 454.86 637.19 445.89 632.68 437.04 627.88 428.2 623.46 419.49 619.11 410.91 615.01 402.34 611.75 394.1 609.07 386.18 607.01 378.23 605.95 370.58 605.51 363.21 605.62 355.78 606.6 348.59 607.95 341.62 609.52 334.55 611.64 327.66 613.71 320.92 615.59 314.03 617.62 307.23 619.19 300.51 620.21 293.59 621.02 286.7 621.1 279.81 620.39 272.7 619.27 265.58 617.29 258.44 614.46 251.1 611.16 243.77 607.03 236.49 602.14 229.1 596.83 221.82 590.82 214.73 584.23 207.69 577.31 200.95 569.9 194.62 562.09 188.52 554.07 182.94 545.75 177.99 537.21 173.43 528.56 169.58 519.76 166.5 510.88 163.86 501.95 161.98 492.99 160.87 484.04 160.09 475.09 159.97 466.17 160.44 457.32 161 448.49 161.96 439.72 163.24 431.07 164.28 422.42 165.43 413.87 166.61 405.45 167.31 397.03 167.92 388.92 168.45 381.13 168.47 373.32 168.47 365.82 168.5 358.61 168.22 351.38 168.14 344.43 168.34 337.76 168.52 331.04 169.16 324.57 170.33 318.35 171.74 312.04 173.81 305.95 176.56 300.05 179.7 294.03 183.56 288.17 188.1 282.44 193.04 276.54 198.63 270.73 204.78 264.99 211.24 259.04 218.18 253.12 225.5 247.23 232.99 241.09 240.76 234.96 248.74 228.85 256.76 222.5 264.9 216.18 273.13 209.92 281.3 203.49 289.51 197.18 297.74 191.03 305.87 184.84 314.03 178.92 322.2 173.33 330.26 167.87 338.37 162.86 346.54 158.4 354.62 154.23 362.79 150.73 371.06 147.96 379.28 145.62 387.64 144.08 396.13 143.41 404.61 143.2 413.25 143.86 422.04 145.38" stroke-dasharray="4 1" transform="rotate(16.16, 400, 400)" opacity="0.20"></path><path d="M422.34 156.06C430.74 157.92 439.01 160.48 447.11 163.63 455.2 166.97 463.11 170.77 470.77 174.94 478.38 179.1 485.7 183.51 492.68 188.08 499.53 192.47 505.97 196.95 511.92 201.45 517.68 205.67 522.88 209.88 527.48 214.08 533.7 219.87 542.58 230.98 545.34 236.41 547.51 241.58 550.54 252.35 552.2 258.12 555.09 264.01 565.01 277.11 572.72 284.4 579.23 289.35 586.58 294.63 594.66 300.22 603.5 305.82 612.71 311.73 622.02 317.94 631.31 324.15 640.07 330.65 647.92 337.42 654.8 344.2 660.14 351.23 663.64 358.51 665.48 365.79 665.18 373.31 662.69 381.05 658.57 388.8 652.67 396.6 645.38 404.44 637.33 412.28 628.63 420.19 619.68 428.13 611.08 436.11 602.88 444.15 595.38 452.25 588.99 460.41 583.59 468.66 579.23 476.98 576.19 485.38 574.11 493.87 572.84 502.44 572.6 511.09 572.83 519.8 573.31 528.55 574.29 537.35 575.13 546.14 575.64 554.87 576.13 563.55 576 572.09 575.15 580.4 573.96 588.53 571.91 596.31 569.02 603.63 565.66 610.6 561.47 616.97 556.52 622.62 551.14 627.75 545.1 632.04 538.49 635.4 531.58 638.13 524.22 639.87 516.51 640.57 508.64 640.67 500.51 639.77 492.23 637.92 483.88 635.65 475.43 632.59 466.96 628.86 458.47 625.04 449.98 620.82 441.55 616.35 433.12 612.24 424.75 608.19 416.46 604.33 408.17 601.25 400.15 598.64 392.4 596.58 384.62 595.43 377.08 594.8 369.77 594.66 362.4 595.33 355.22 596.32 348.21 597.54 341.11 599.29 334.14 601.03 327.28 602.64 320.28 604.44 313.34 605.88 306.45 606.87 299.39 607.74 292.34 607.98 285.3 607.55 278.09 606.81 270.87 605.3 263.67 603.04 256.33 600.39 249.04 596.98 241.84 592.85 234.6 588.35 227.53 583.19 220.69 577.44 213.97 571.39 207.6 564.83 201.66 557.85 196 550.66 190.88 543.12 186.38 535.33 182.28 527.41 178.87 519.29 176.2 511.04 173.94 502.73 172.4 494.34 171.56 485.92 171.03 477.48 171.1 469.03 171.71 460.62 172.38 452.21 173.41 443.84 174.72 435.55 175.79 427.27 176.96 419.07 178.15 410.96 178.87 402.86 179.5 395.04 180.04 387.5 180.09 379.95 180.1 372.68 180.13 365.67 179.84 358.64 179.71 351.85 179.81 345.32 179.85 338.72 180.3 332.35 181.22 326.19 182.32 319.94 184.01 313.87 186.34 307.96 188.99 301.93 192.33 296.02 196.32 290.23 200.69 284.27 205.69 278.38 211.25 272.55 217.14 266.52 223.53 260.52 230.33 254.55 237.35 248.37 244.69 242.21 252.29 236.08 259.98 229.76 267.85 223.49 275.84 217.31 283.83 211.01 291.91 204.84 300.02 198.88 308.09 192.91 316.19 187.22 324.3 181.89 332.35 176.7 340.42 171.97 348.52 167.79 356.57 163.89 364.67 160.64 372.81 158.09 380.92 155.94 389.11 154.57 397.36 154 405.6 153.87 413.93 154.56 422.33 156.05" stroke-dasharray="6 4" transform="rotate(20.200000000000003, 400, 400)" opacity="0.24"></path><path d="M420.44 166.73C428.41 168.55 436.17 171.01 443.7 174.04 451.22 177.26 458.48 180.93 465.44 184.96 472.35 188.99 478.92 193.28 485.1 197.75 491.17 202.08 496.81 206.51 501.95 210.99 509.19 217.35 520.7 229.64 524.95 235.56 528.53 241.07 533.65 251.93 535.66 257.43 538.15 262.8 545.04 274.29 550.17 280.52 554.69 284.69 559.92 289.14 565.89 293.85 572.77 298.55 580.31 303.53 588.39 308.81 597.02 314.07 605.86 319.64 614.63 325.48 623.27 331.32 631.31 337.45 638.43 343.85 644.61 350.25 649.34 356.91 652.37 363.83 653.91 370.75 653.52 377.93 651.16 385.36 647.33 392.78 641.88 400.29 635.15 407.87 627.7 415.45 619.58 423.12 611.15 430.85 602.93 438.6 594.98 446.44 587.54 454.35 581 462.3 575.28 470.34 570.45 478.45 566.77 486.6 563.95 494.84 561.89 503.12 560.82 511.44 560.26 519.79 560.05 528.13 560.4 536.47 560.77 544.76 560.98 552.92 561.33 561 561.25 568.88 560.63 576.48 559.84 583.87 558.36 590.88 556.16 597.39 553.63 603.56 550.36 609.12 546.38 613.98 542.06 618.36 537.09 621.95 531.54 624.66 525.72 626.82 519.4 628.08 512.68 628.4 505.79 628.21 498.58 627.13 491.13 625.22 483.59 622.96 475.87 620.02 468.05 616.49 460.19 612.92 452.26 609 444.3 604.85 436.33 601.04 428.36 597.27 420.39 593.66 412.43 590.74 404.66 588.23 397.08 586.18 389.49 584.94 382.08 584.15 374.83 583.79 367.53 584.17 360.37 584.84 353.33 585.72 346.22 587.11 339.18 588.52 332.22 589.85 325.15 591.4 318.12 592.67 311.12 593.56 303.98 594.42 296.86 594.76 289.75 594.52 282.52 594.06 275.31 592.93 268.15 591.14 260.91 589.03 253.76 586.24 246.75 582.79 239.77 579.01 233 574.62 226.52 569.66 220.2 564.42 214.25 558.68 208.77 552.51 203.59 546.13 198.96 539.38 194.94 532.34 191.31 525.17 188.34 517.76 186.07 510.18 184.19 502.53 182.96 494.75 182.4 486.9 182.09 479.01 182.33 471.08 183.06 463.15 183.82 455.2 184.9 447.27 186.23 439.38 187.32 431.49 188.49 423.65 189.68 415.87 190.42 408.1 191.07 400.57 191.63 393.29 191.71 386 191.76 378.94 191.8 372.12 191.51 365.27 191.35 358.64 191.38 352.21 191.32 345.74 191.61 339.44 192.3 333.32 193.13 327.12 194.49 321.06 196.41 315.14 198.61 309.1 201.45 303.16 204.89 297.3 208.68 291.3 213.08 285.36 218.03 279.46 223.31 273.4 229.09 267.36 235.31 261.36 241.77 255.18 248.58 249.03 255.69 242.93 262.94 236.69 270.41 230.53 278.04 224.47 285.73 218.33 293.53 212.37 301.4 206.62 309.27 200.9 317.19 195.48 325.13 190.42 333.05 185.53 340.98 181.1 348.92 177.19 356.84 173.57 364.77 170.57 372.71 168.24 380.64 166.29 388.59 165.06 396.54 164.6 404.5 164.55 412.47 165.25 420.43 166.73" stroke-dasharray="5 10" transform="rotate(24.24, 400, 400)" opacity="0.28"></path><path d="M416.54 177.4C424.04 179.16 431.28 181.53 438.25 184.44 445.2 187.53 451.84 191.05 458.16 194.93 464.42 198.83 470.32 202.98 475.82 207.34 481.23 211.58 486.21 215.94 490.73 220.37 497.12 226.73 507.37 239.15 511.31 245.18 514.85 250.84 520.71 261.99 523.51 267.58 526.97 273.02 536.12 284.46 542.36 290.56 547.5 294.62 553.25 298.92 559.6 303.45 566.68 307.95 574.26 312.7 582.21 317.72 590.54 322.72 598.92 327.99 607.1 333.53 615.07 339.06 622.39 344.86 628.79 350.93 634.3 356.99 638.46 363.32 641.06 369.91 642.33 376.49 641.87 383.34 639.62 390.46 636.08 397.57 631.07 404.78 624.87 412.07 618 419.37 610.46 426.77 602.56 434.23 594.77 441.72 587.11 449.3 579.82 456.94 573.24 464.62 567.31 472.37 562.12 480.17 557.91 488.01 554.45 495.89 551.7 503.78 549.85 511.69 548.53 519.58 547.59 527.42 547.26 535.23 547.06 542.93 546.84 550.46 546.87 557.88 546.64 565.06 546.04 571.92 544.82 581.66 539.26 598.28 534.77 604.8 529.27 609.95 515.08 615.63 506.61 616.06 500.65 615.63 494.33 614.43 487.7 612.49 480.99 610.28 474.03 607.48 466.88 604.16 459.69 600.84 452.36 597.2 444.91 593.37 437.47 589.85 429.93 586.36 422.33 582.99 414.73 580.23 407.25 577.81 399.89 575.79 392.52 574.48 385.26 573.56 378.11 573 370.93 573.11 363.82 573.48 356.8 574.05 349.71 575.1 342.67 576.18 335.68 577.22 328.61 578.5 321.56 579.57 314.53 580.34 307.41 581.13 300.31 581.49 293.24 581.36 286.1 581.09 279.01 580.25 272 578.83 264.98 577.16 258.09 574.89 251.38 572.02 244.75 568.88 238.37 565.17 232.32 560.93 226.46 556.44 221.01 551.46 216.03 546.05 211.36 540.45 207.24 534.47 203.72 528.17 200.56 521.74 198.03 515.05 196.16 508.15 194.62 501.17 193.7 494.03 193.38 486.77 193.27 479.47 193.66 472.09 194.49 464.66 195.32 457.22 196.43 449.75 197.77 442.28 198.87 434.81 200.04 427.35 201.22 419.92 201.97 412.49 202.64 405.26 203.22 398.24 203.35 391.21 203.43 384.38 203.49 377.74 203.22 371.07 203.06 364.59 203.05 358.27 202.91 351.91 203.08 345.69 203.59 339.62 204.18 333.47 205.24 327.43 206.8 321.5 208.59 315.47 210.95 309.52 213.87 303.63 217.1 297.62 220.9 291.65 225.23 285.73 229.88 279.67 235.02 273.64 240.6 267.65 246.44 261.53 252.65 255.45 259.19 249.44 265.9 243.33 272.86 237.31 280.01 231.42 287.27 225.51 294.67 219.77 302.17 214.27 309.71 208.84 317.32 203.71 324.97 198.95 332.62 194.37 340.3 190.23 347.98 186.62 355.65 183.28 363.32 180.53 370.98 178.41 378.63 176.66 386.26 175.58 393.86 175.22 401.46 175.23 409.03 175.96 416.53 177.4" stroke-dasharray="4 3" transform="rotate(28.28, 400, 400)" opacity="0.32"></path><path d="M411.01 188.07C418.03 189.78 424.76 192.05 431.19 194.83 437.6 197.78 443.68 201.15 449.43 204.86 455.13 208.61 460.46 212.62 465.41 216.84 470.3 220.97 474.79 225.24 478.86 229.6 484.68 235.91 494.29 248.38 498.22 254.49 501.98 260.27 508.99 271.67 512.66 277.37 517.1 282.9 528.32 294.36 535.47 300.4 541.07 304.39 547.17 308.59 553.74 313 560.88 317.34 568.37 321.93 576.06 326.74 583.99 331.53 591.84 336.56 599.41 341.84 606.69 347.11 613.29 352.63 619 358.4 623.87 364.17 627.5 370.19 629.71 376.47 630.74 382.75 630.21 389.28 628.08 396.08 624.81 402.87 620.22 409.77 614.54 416.76 608.23 423.75 601.26 430.84 593.9 438 586.57 445.18 579.26 452.43 572.18 459.75 565.66 467.08 559.63 474.47 554.19 481.89 549.57 489.32 545.6 496.77 542.24 504.19 539.7 511.61 537.66 518.97 536.03 526.24 535.01 533.45 534.19 540.51 533.45 547.36 533.03 554.08 532.49 560.53 531.73 566.63 530.5 575.24 525.79 589.6 522.08 595.07 517.58 599.3 505.71 603.57 498.47 603.57 493.36 602.96 487.86 601.68 482.01 599.75 476.08 597.62 469.86 594.97 463.38 591.87 456.87 588.8 450.15 585.45 443.25 581.92 436.34 578.68 429.27 575.45 422.08 572.31 414.88 569.72 407.73 567.4 400.63 565.41 393.54 564.05 386.48 563.02 379.49 562.29 372.47 562.16 365.49 562.26 358.55 562.54 351.57 563.26 344.61 564.04 337.67 564.78 330.69 565.79 323.72 566.63 316.77 567.24 309.78 567.91 302.82 568.24 295.91 568.16 288.98 568 282.13 567.36 275.4 566.21 268.7 564.89 262.17 563.04 255.86 560.65 249.67 558.06 243.77 554.94 238.21 551.32 232.88 547.5 227.96 543.21 223.52 538.5 219.38 533.63 215.78 528.37 212.75 522.79 210.06 517.08 207.95 511.09 206.45 504.86 205.25 498.55 204.61 492.05 204.51 485.39 204.58 478.7 205.09 471.88 205.99 464.97 206.87 458.05 208.01 451.06 209.34 444.04 210.43 437.01 211.59 429.95 212.76 422.88 213.52 415.81 214.21 408.89 214.8 402.14 214.98 395.39 215.1 388.78 215.2 382.33 214.97 375.86 214.82 369.53 214.79 363.33 214.61 357.09 214.68 350.97 215.05 344.95 215.45 338.88 216.25 332.89 217.5 326.98 218.91 320.99 220.84 315.05 223.27 309.17 225.97 303.19 229.19 297.25 232.92 291.36 236.93 285.35 241.42 279.39 246.35 273.47 251.52 267.45 257.08 261.5 262.98 255.63 269.07 249.7 275.43 243.88 282.02 238.21 288.74 232.55 295.63 227.09 302.64 221.87 309.73 216.74 316.92 211.93 324.15 207.49 331.42 203.23 338.73 199.4 346.03 196.08 353.35 193.02 360.67 190.52 367.95 188.62 375.24 187.05 382.49 186.12 389.68 185.85 396.87 185.93 403.99 186.67 411 188.07" stroke-dasharray="10 6" transform="rotate(32.32, 400, 400)" opacity="0.35"></path><path d="M404.41 198.75C410.93 200.38 417.17 202.56 423.09 205.2 429.01 208.01 434.6 211.22 439.86 214.76 445.09 218.35 449.98 222.2 454.51 226.26 461.09 232.34 472.46 244.89 477.32 251.22 481.96 257.32 490.29 269.33 494.28 275.26 498.67 280.94 508.59 292.35 514.5 298.16 519.07 301.94 524.03 305.85 529.39 309.9 535.29 313.86 541.59 318 548.23 322.31 555.28 326.55 562.54 331 569.88 335.66 577.33 340.28 584.61 345.12 591.52 350.18 598.11 355.22 604.02 360.5 609.06 366.01 613.34 371.51 616.47 377.25 618.32 383.23 619.13 389.21 618.55 395.44 616.55 401.91 613.54 408.38 609.35 414.96 604.16 421.61 598.4 428.27 591.99 435.02 585.18 441.83 578.32 448.64 571.4 455.53 564.6 462.45 558.22 469.38 552.2 476.34 546.62 483.31 541.72 490.27 537.34 497.22 533.5 504.11 530.36 510.97 527.69 517.75 525.41 524.39 523.71 530.96 522.26 537.35 520.95 543.5 519.54 552.36 516.49 568.07 514.43 574.67 508.48 584.27 494.86 591.3 488.63 590.95 481.84 589.56 466.3 583.74 457.7 579.62 451.83 576.8 445.71 573.73 439.35 570.49 432.99 567.53 426.42 564.55 419.66 561.64 412.9 559.2 406.12 556.99 399.35 555.05 392.57 553.65 385.79 552.53 379.02 551.66 372.24 551.32 365.46 551.17 358.69 551.18 351.91 551.61 345.13 552.08 338.36 552.55 331.57 553.28 324.8 553.88 318.06 554.3 311.31 554.82 304.61 555.06 297.98 554.97 291.38 554.85 284.88 554.33 278.53 553.38 272.27 552.31 266.19 550.78 260.37 548.79 252.01 545.32 237.37 535.85 231.31 529.94 226.17 523.42 218.99 508.51 216.99 500.27 216.08 494.62 215.69 488.74 215.78 482.69 216 476.59 216.61 470.34 217.57 463.96 218.48 457.57 219.62 451.07 220.93 444.5 222.01 437.93 223.15 431.28 224.29 424.59 225.06 417.9 225.76 411.31 226.38 404.85 226.6 398.38 226.77 392.02 226.91 385.78 226.74 379.52 226.62 373.36 226.6 367.3 226.41 361.21 226.42 355.2 226.69 349.28 226.93 343.31 227.53 337.4 228.51 331.55 229.6 325.63 231.14 319.77 233.14 313.95 235.34 308.05 238.03 302.19 241.18 296.38 244.57 290.48 248.42 284.63 252.69 278.85 257.19 273 262.07 267.22 267.3 261.55 272.71 255.85 278.42 250.28 284.37 244.88 290.46 239.5 296.75 234.34 303.19 229.45 309.73 224.65 316.38 220.17 323.1 216.05 329.88 212.12 336.71 208.61 343.55 205.58 350.42 202.8 357.29 200.55 364.12 198.86 370.97 197.47 377.77 196.67 384.5 196.5 391.23 196.63 397.88 197.38 404.4 198.75" stroke-dasharray="6 4" transform="rotate(36.36, 400, 400)" opacity="0.39"></path><path d="M397.37 209.42C403.41 210.99 409.17 213.05 414.65 215.56 420.12 218.22 425.29 221.26 430.16 224.62 439.87 231.48 448.36 239.26 455.68 247.6 463.08 255.52 469.56 263.74 475.39 272.1 481.87 279.77 488.35 287.61 495.26 295.6 503.68 303 513.21 310.76 524 318.92 536.47 326.72 549.91 335.15 563.61 344.24 577.31 353.16 589.54 362.89 598.98 373.45 604.03 381.45 607.2 398.53 605.01 407.64 602.26 413.78 598.44 420.01 593.73 426.31 588.49 432.61 582.64 438.98 576.37 445.4 563.7 458.24 551.03 471.25 539.35 484.18 529.82 497.04 521.99 509.67 515.75 521.74 511.64 533.44 508.3 544.24 505.12 553.72 502.79 562.37 499.66 569.29 495.36 574.11 490.97 577.77 485.04 579.17 477.58 578.24 469.83 576.43 460.63 572.72 450.18 567.42 444.9 564.84 439.34 562.05 433.52 559.09 427.69 556.39 421.62 553.66 415.32 550.97 409.02 548.69 402.66 546.59 396.25 544.7 389.85 543.29 383.4 542.09 376.94 541.1 364.01 540.51 350.98 540.43 338.01 540.53 325.06 541.66 312.21 542.23 299.71 541.87 287.44 541.59 275.77 539.85 265.07 536.56 255.06 532.82 246.4 527.41 239.47 520.47 233.6 513.07 229.65 504.3 227.75 494.42 226.66 484.28 227.22 473.25 229.21 461.57 230.14 455.71 231.27 449.71 232.55 443.6 233.6 437.48 234.71 431.26 235.83 424.96 236.6 418.66 237.31 412.42 237.95 406.26 238.22 400.1 238.44 394.01 238.63 387.99 238.14 375.93 237.98 364.11 238.46 352.57 238.75 340.87 240.36 329.32 243.46 317.98 247.18 306.41 252.66 294.98 259.73 283.84 267.62 272.56 276.93 261.67 287.34 251.45 298.31 241.42 310.07 232.37 322.26 224.66 334.73 217.66 347.42 212.37 360.04 209.13 366.39 207.91 372.7 207.25 378.93 207.16 385.17 207.34 391.33 208.09 397.36 209.42" stroke-dasharray="9 10" transform="rotate(40.400000000000006, 400, 400)" opacity="0.43"></path><path d="M390.59 220.09C401.73 223.28 411.89 228.2 421.04 234.46 430.16 240.96 438.32 248.38 445.57 256.39 453.01 264.09 459.84 272.15 466.31 280.39 473.47 288.07 480.84 295.93 488.72 303.94 497.92 311.43 508.06 319.22 519.17 327.35 531.51 335.13 544.41 343.43 557.17 352.3 569.66 360.98 580.55 370.37 588.75 380.47 594.46 390.5 596.18 401.34 593.47 412.95 587.77 424.56 578.71 436.44 567.47 448.41 555.76 460.39 543.75 472.42 532.34 484.27 522.58 496.01 514.14 507.41 507.04 518.16 501.81 528.52 497.39 537.94 493.33 546.04 488.45 556.26 475.36 566.21 465.89 565.44 458.99 563.61 450.77 560.12 441.33 555.27 431.78 550.71 421.12 545.58 409.47 540.29 397.83 536.45 385.81 533.19 373.63 530.62 361.49 529.67 349.21 529.12 336.99 528.74 324.88 529.34 312.93 529.5 301.39 528.93 290.19 528.56 279.66 526.98 270.16 524.07 261.35 520.9 253.88 516.25 248.07 510.22 243.19 503.84 240.06 496.16 238.76 487.39 238.1 478.4 238.89 468.47 240.93 457.82 242.65 447.1 244.89 435.77 247.37 423.97 248.55 412.17 249.54 400.47 250.35 388.98 250.01 377.45 249.93 366.06 250.37 354.87 250.49 343.56 251.73 332.36 254.22 321.35 257.16 310.18 261.63 299.19 267.56 288.52 274.16 277.81 282.12 267.54 291.17 257.98 300.74 248.67 311.15 240.35 322.08 233.33 333.29 226.99 344.8 222.26 356.32 219.43 367.95 217.59 379.45 217.77 390.58 220.09" stroke-dasharray="3 7" transform="rotate(44.44, 400, 400)" opacity="0.47"></path><path d="M384.73 230.77C394.98 233.79 404.45 238.39 413.12 244.26 421.81 250.38 429.78 257.41 437.12 265.05 444.69 272.47 451.93 280.29 459.04 288.34 466.82 295.95 474.91 303.76 483.52 311.71 493.2 319.23 503.64 327.01 514.75 335.07 526.68 342.82 538.82 350.99 550.53 359.62 561.75 368.09 571.33 377.14 578.37 386.79 583.21 396.38 584.52 406.64 581.94 417.55 576.8 428.46 568.65 439.53 558.48 450.61 547.74 461.66 536.49 472.66 525.52 483.39 515.76 493.98 506.96 504.13 499.23 513.57 493.1 522.64 487.72 530.74 482.8 537.56 476.79 546.08 463.12 553.74 454.19 552.61 447.86 550.8 440.38 547.58 431.79 543.17 423.13 539.08 413.4 534.45 402.7 529.62 392 526.03 380.9 522.86 369.61 520.21 358.37 518.95 347.01 518 335.74 517.19 324.63 517.3 313.74 517.05 303.35 516.22 293.33 515.67 284.03 514.13 275.78 511.49 268.19 508.71 261.9 504.66 257.14 499.37 253.17 493.84 250.78 487.11 250.01 479.33 249.7 471.37 250.66 462.47 252.7 452.8 254.38 443.06 256.53 432.65 258.9 421.67 260.1 410.69 261.15 399.69 262.06 388.79 261.88 377.86 261.92 366.98 262.36 356.24 262.41 345.42 263.38 334.68 265.4 324.13 267.68 313.49 271.3 303.05 276.21 292.97 281.63 282.92 288.33 273.35 296.07 264.51 304.26 255.97 313.31 248.39 322.95 242.07 332.84 236.39 343.12 232.21 353.52 229.78 364.01 228.23 374.49 228.52 384.73 230.77" stroke-dasharray="8 4" transform="rotate(48.48, 400, 400)" opacity="0.51"></path><path d="M380.37 241.44C389.78 244.28 398.64 248.58 406.93 254.05 415.27 259.77 423.14 266.37 430.62 273.58 438.35 280.67 445.97 288.19 453.61 295.97 461.84 303.42 470.44 311.09 479.48 318.92 489.35 326.39 499.77 334.09 510.57 342.02 521.87 349.69 533.08 357.71 543.64 366.09 553.58 374.32 561.89 383.03 567.86 392.21 571.89 401.34 572.84 411.01 570.4 421.2 565.79 431.38 558.52 441.61 549.38 451.75 539.64 461.85 529.23 471.8 518.83 481.37 509.28 490.82 500.36 499.75 492.26 507.92 485.44 515.76 479.3 522.64 473.63 528.31 466.49 535.33 451.81 541.11 443.1 539.75 437.09 538.02 430.14 535.08 422.24 531.12 414.31 527.48 405.43 523.34 395.66 518.95 385.89 515.61 375.76 512.55 365.45 509.86 355.22 508.36 344.9 507.08 334.73 505.89 324.74 505.53 315.04 504.89 305.88 503.78 297.1 503 289.08 501.42 282.09 498.92 275.69 496.4 270.5 492.79 266.72 488.1 263.58 483.25 261.83 477.33 261.49 470.41 261.47 463.36 262.54 455.4 264.53 446.65 266.15 437.85 268.18 428.33 270.44 418.19 271.64 408.05 272.75 397.79 273.74 387.54 273.74 377.28 273.92 367 274.43 356.81 274.48 346.59 275.27 336.43 276.95 326.45 278.72 316.45 281.63 306.67 285.67 297.27 290.07 287.96 295.62 279.16 302.15 271.09 309.05 263.35 316.8 256.53 325.17 250.9 333.77 245.87 342.83 242.22 352.11 240.17 361.48 238.89 370.96 239.28 380.37 241.44" stroke-dasharray="4 7" transform="rotate(52.52, 400, 400)" opacity="0.54"></path><path d="M377.93 252.11C386.56 254.77 394.88 258.75 402.84 263.8 410.86 269.11 418.64 275.25 426.24 282.01 434.07 288.7 441.94 295.85 449.93 303.28 458.41 310.48 467.22 317.92 476.39 325.53 486.14 332.86 496.24 340.41 506.48 348.15 516.93 355.67 527.08 363.48 536.44 371.56 545.11 379.52 552.22 387.85 557.2 396.54 560.52 405.19 561.15 414.25 558.86 423.69 554.76 433.13 548.32 442.5 540.18 451.67 531.43 460.82 521.92 469.7 512.21 478.15 503.06 486.48 494.26 494.23 486.03 501.22 478.79 507.93 472.09 513.7 465.84 518.36 457.72 524.07 441.87 528.35 433.18 526.89 427.31 525.29 420.72 522.65 413.39 519.13 406.05 515.92 397.93 512.24 389.05 508.27 380.18 505.19 371.02 502.27 361.76 499.59 352.58 497.9 343.38 496.34 334.39 494.83 325.59 494.06 317.13 493.06 309.26 491.67 301.73 490.64 294.97 488.96 289.19 486.52 281.82 482.48 273.8 469.67 273.19 460.87 273.38 454.61 274.5 447.5 276.41 439.61 277.94 431.67 279.84 423.02 281.98 413.72 283.17 404.42 284.32 394.93 285.4 385.4 285.58 375.87 285.92 366.28 286.51 356.75 286.63 347.21 287.36 337.73 288.8 328.44 290.2 319.18 292.57 310.15 295.89 301.51 299.44 293.02 304.01 285.04 309.48 277.77 315.21 270.84 321.77 264.79 328.97 259.85 336.35 255.44 344.24 252.3 352.47 250.61 360.76 249.58 369.3 250.05 377.93 252.11" stroke-dasharray="10 2" transform="rotate(56.56, 400, 400)" opacity="0.58"></path><path d="M377.65 262.79C385.56 265.25 393.35 268.9 400.99 273.54 408.68 278.41 416.32 284.07 423.93 290.33 431.74 296.58 439.69 303.29 447.79 310.31 456.25 317.16 465 324.29 473.99 331.59 483.34 338.68 492.86 345.98 502.3 353.44 511.76 360.73 520.78 368.25 528.91 375.98 536.35 383.61 542.34 391.52 546.41 399.67 549.08 407.8 549.45 416.22 547.33 424.88 543.7 433.55 538.05 442.05 530.87 450.27 523.1 458.46 514.52 466.31 505.61 473.68 497.02 480.94 488.54 487.6 480.42 493.51 473.03 499.18 466.02 503.98 459.39 507.76 453.43 511.2 447.61 513.56 441.83 514.75 436.44 515.63 430.81 515.39 424.85 514.05 419.03 512.61 412.71 510.29 405.84 507.2 398.99 504.4 391.53 501.16 383.51 497.6 375.48 494.78 367.3 492.01 359.11 489.37 350.98 487.55 342.93 485.79 335.15 484.03 327.54 482.91 320.33 481.58 313.71 479.94 304.61 477.74 291.25 470.51 287.45 465.1 285.24 458.84 285.98 442.19 288.34 431.91 289.75 424.78 291.52 416.96 293.51 408.5 294.69 400.04 295.87 391.36 297.02 382.6 297.38 373.86 297.88 365.03 298.6 356.25 298.84 347.48 299.56 338.78 300.87 330.26 302.05 321.81 304.02 313.61 306.8 305.81 309.68 298.17 313.44 291.04 318.01 284.6 322.75 278.48 328.26 273.19 334.42 268.91 340.69 265.12 347.53 262.46 354.79 261.09 362.09 260.3 369.74 260.83 377.65 262.79" stroke-dasharray="0 0" transform="rotate(60.599999999999994, 400, 400)" opacity="0.62"></path><path d="M379.56 273.46C386.78 275.73 394.05 279.05 401.32 283.26 408.64 287.68 416.04 292.85 423.51 298.57 431.13 304.33 438.93 310.54 446.87 317.07 455.07 323.51 463.47 330.22 471.99 337.11 480.69 343.87 489.41 350.82 497.89 357.9 506.26 364.87 514.09 372.02 521.01 379.32 527.28 386.54 532.23 393.97 535.49 401.55 537.6 409.11 537.75 416.86 535.79 424.73 532.61 432.61 527.7 440.24 521.43 447.52 514.63 454.78 507.01 461.64 498.96 467.99 491.06 474.25 483.1 479.91 475.3 484.86 468.01 489.62 460.95 493.57 454.19 496.62 447.93 499.42 441.83 501.28 435.83 502.13 430.15 502.78 424.38 502.48 418.44 501.26 412.65 500.01 406.54 498 400.08 495.33 393.65 492.92 386.81 490.09 379.58 486.93 372.36 484.37 365.11 481.77 357.96 479.21 350.86 477.32 343.93 475.42 337.33 473.48 327.85 471.28 311.94 466.1 306.01 462.65 301.38 458.85 297 448.05 297.18 440.93 297.58 435.92 298.65 430.22 300.3 423.85 301.59 417.47 303.2 410.44 305.05 402.81 306.2 395.19 307.39 387.34 308.6 379.4 309.12 371.48 309.78 363.48 310.63 355.52 311.02 347.59 311.81 339.73 313.07 332.07 314.14 324.49 315.85 317.17 318.24 310.25 320.62 303.49 323.76 297.23 327.61 291.63 331.55 286.31 336.19 281.75 341.45 278.12 346.78 274.9 352.69 272.69 359.08 271.63 365.49 271.04 372.34 271.63 379.56 273.46" stroke-dasharray="7 8" transform="rotate(64.64, 400, 400)" opacity="0.66"></path><path d="M383.47 284.13C390.04 286.2 396.76 289.19 403.58 292.96 410.45 296.93 417.47 301.57 424.6 306.74 431.85 311.97 439.27 317.63 446.81 323.61 454.49 329.55 462.29 335.76 470.09 342.16 477.95 348.48 485.7 354.98 493.12 361.6 500.33 368.14 506.97 374.83 512.73 381.61 517.9 388.35 521.89 395.22 524.44 402.17 526.06 409.11 526.03 416.15 524.25 423.23 521.5 430.3 517.28 437.06 511.89 443.44 506.01 449.8 499.35 455.73 492.22 461.15 485.11 466.5 477.81 471.27 470.53 475.37 463.57 479.34 456.72 482.58 450.06 485.03 443.76 487.31 437.59 488.78 431.53 489.4 425.74 489.9 419.94 489.61 414.09 488.54 408.36 487.49 402.48 485.79 396.42 483.51 390.39 481.48 384.13 479.03 377.66 476.25 371.19 473.95 364.82 471.55 358.66 469.11 349.58 466.22 333.25 460.66 326.39 457.73 316.28 451.29 309.06 437.52 309.42 431.05 310.33 423.99 314.17 406.91 316.59 396.98 317.69 390.17 318.88 383.17 320.13 376.09 320.79 369.02 321.6 361.88 322.59 354.8 323.15 347.76 324.04 340.8 325.31 334.04 326.37 327.37 327.94 320.96 330.06 314.94 333.46 306.38 343.38 292.43 349.88 287.48 356.99 283.9 373.85 282.12 383.47 284.13" stroke-dasharray="1 7" transform="rotate(68.68, 400, 400)" opacity="0.70"></path><path d="M389 294.81C400.83 298.77 413.59 305.78 426.75 314.86 440.18 324.22 454.22 335.13 468.01 346.8 481.69 358.3 494.26 370.52 504.04 382.93 511.82 395.24 515.12 407.92 512.71 420.45 507.35 432.97 497.56 444.09 485.34 453.3 472.87 462.29 459.65 469.06 446.78 473.11 434.87 476.76 423.15 477.7 411.75 475.91 400.77 474.31 389.43 470.74 377.92 465.58 366.41 461.91 355.78 457.65 346.65 453.11 337.76 449.97 330.79 445.91 326.33 440.75 322.3 436.15 320.77 429.78 321.78 421.6 322.4 413.46 324.63 403.29 328.13 391.3 329.7 379.31 331.82 366.71 334.42 354.32 335.54 342.1 338.01 330.34 342.06 319.96 345.7 310.15 351.5 302.2 359.38 297.01 367.22 292.92 377.17 291.99 389 294.81" stroke-dasharray="9 4" transform="rotate(72.72, 400, 400)" opacity="0.73"></path><path d="M395.61 305.48C406.13 308.95 417.58 315.05 429.4 322.95 441.34 331.13 453.65 340.76 465.46 351.1 476.96 361.39 487.24 372.35 494.93 383.41 501.02 394.43 503.41 405.66 501.18 416.56 496.73 427.45 488.58 436.93 478.25 444.62 467.52 452.16 455.81 457.72 444.12 460.98 432.98 464.03 421.91 464.83 411.24 463.39 400.87 462.19 390.47 459.29 380.34 454.91 370.21 451.65 361.23 447.67 353.8 443.29 346.5 439.96 340.97 435.79 337.6 430.73 334.41 426.15 333.29 420.17 334.24 412.78 334.72 405.46 336.59 396.51 339.66 386.1 341.2 375.69 343.39 364.87 346.08 354.32 347.56 343.92 350.15 334.03 354.03 325.42 357.43 317.29 362.6 310.81 369.53 306.71 376.36 303.47 385.09 302.9 395.61 305.48" stroke-dasharray="10 2" transform="rotate(76.76, 400, 400)" opacity="0.77"></path><path d="M402.65 316.15C411.82 319.14 421.78 324.31 431.97 331.02 442.18 337.99 452.52 346.24 462.2 355.15 471.51 364.09 479.59 373.62 485.42 383.21 490.02 392.8 491.66 402.49 489.64 411.76 486.03 421.04 479.42 428.97 470.93 435.31 462 441.56 452 446.11 441.8 448.77 431.85 451.33 421.84 452.09 412.21 451.01 402.76 450.16 393.47 447.87 384.69 444.23 375.91 441.41 368.4 437.79 362.38 433.69 354.21 428.3 346.41 414.19 346.74 404.82 347.06 398.3 348.57 390.52 351.2 381.66 352.67 372.8 354.84 363.72 357.55 354.98 359.3 346.37 362.01 338.3 365.74 331.38 369.03 324.83 373.73 319.71 379.86 316.6 385.86 314.11 393.47 313.84 402.65 316.15" stroke-dasharray="6 4" transform="rotate(80.80000000000001, 400, 400)" opacity="0.81"></path><path d="M409.42 326.83C417.19 329.32 425.5 333.57 433.88 339.09 442.23 344.83 450.49 351.66 458.03 359.06 465.23 366.53 471.3 374.51 475.49 382.54 478.83 390.58 479.86 398.66 478.1 406.33 475.26 413.99 470.08 420.48 463.34 425.62 456.21 430.71 448.04 434.41 439.54 436.59 431.1 438.76 422.49 439.49 414.18 438.76 405.97 438.24 397.96 436.5 390.54 433.56 383.12 431.18 376.92 428.01 372.07 424.31 365.45 419.21 359.11 406.13 359.25 397.86 359.39 392.16 360.55 385.56 362.74 378.22 364.08 370.87 366.16 363.49 368.78 356.51 370.7 349.61 373.44 343.25 377 337.9 382.32 330.88 398.39 324.84 409.42 326.83" stroke-dasharray="7 7" transform="rotate(84.84, 400, 400)" opacity="0.85"></path><path d="M415.28 337.5C427.87 341.76 441.56 351.29 452.81 362.93 463.03 374.85 468.77 388.38 466.57 400.55 461.67 412.71 450.35 421.01 437.06 424.58 423.65 428.24 409.39 427.75 397.32 422.89 385.24 419.43 377.29 412.96 374.01 404.94 370.27 397.67 370.31 387.68 374.27 375.97 376.06 364.25 380.79 353.08 387.58 345.05 393.32 337.7 402.68 334.47 415.28 337.5" stroke-dasharray="7 4" transform="rotate(88.88, 400, 400)" opacity="0.89"></path><path d="M419.63 348.17C429.17 351.32 438.9 358.3 446.44 366.87 453.33 375.65 456.91 385.69 455.03 394.73 451.67 403.77 443.71 410 434.11 412.83 424.29 415.77 413.56 415.69 404.35 412.21 395.14 409.52 389.01 404.27 386.3 397.78 383.21 391.72 382.94 383.79 385.81 375.02 387.41 366.25 391.57 358.29 397.33 352.84 402.46 347.77 410.09 345.73 419.63 348.17" stroke-dasharray="9 0" transform="rotate(92.92, 400, 400)" opacity="0.92"></path><path d="M422.07 358.85C434.86 363.26 445.59 377.25 443.49 389.21 438.83 401.16 423.43 406.25 410.96 401.54 398.49 398.19 393.15 387.14 397.35 375.44 399.23 363.73 409.26 355.71 422.07 358.85" stroke-dasharray="6 7" transform="rotate(96.96, 400, 400)" opacity="0.96"></path></g></svg>